<svg xmlns="http://www.w3.org/2000/svg" xmlns:v="https://svgstorm.com"
viewBox = "0 0 638 636"
width="638"
height="636">
<g fill="currentColor" fill-opacity="0.0" stroke="#000000" stroke-opacity="0.01" stroke-width="0.3"><path d="
M 0.00 636.00
L 638.00 636.00
L 638.00 0.00
L 0.00 0.00
L 0.00 636.00
M 119.00 185.00
C 109.01 190.39 118.60 219.04 116.00 231.00 C 113.40 242.96 117.34 266.41 116.00 280.00 C 114.66 293.59 115.03 311.38 122.00 323.00
C 134.77 338.55 141.42 333.38 159.07 340.93 C 176.73 348.47 147.95 359.30 134.00 358.00 C 120.05 356.70 96.53 362.56 81.33 358.67 C 66.13 354.78 50.70 350.92 35.00 349.00
C 49.33 366.28 76.25 367.72 80.98 393.02 C 85.70 418.33 102.33 431.03 113.30 451.70 C 124.27 472.36 140.15 482.50 156.90 499.10 C 173.65 515.70 190.05 519.86 209.25 537.75 C 228.45 555.64 246.71 528.83 261.00 515.00
C 239.60 520.58 195.66 532.62 220.10 510.10 C 244.54 487.58 273.65 526.47 290.75 497.75 C 307.86 469.04 323.85 465.36 319.00 433.00
C 313.68 442.78 309.25 453.08 304.00 463.00
C 307.65 460.67 301.97 466.62 301.00 467.00
C 286.19 472.73 269.38 436.12 255.75 424.25 C 242.12 412.38 232.48 384.53 223.01 364.99 C 213.54 345.45 210.63 309.27 211.00 284.00 C 211.37 258.73 221.60 233.79 230.25 211.25 C 238.89 188.71 265.71 179.90 280.00 169.00 C 294.29 158.10 272.71 114.47 295.25 99.25 C 317.78 84.03 337.27 71.21 363.08 82.92 C 388.89 94.63 387.05 123.02 413.25 105.25 C 439.44 87.47 463.91 102.41 491.00 90.00
C 455.54 75.20 414.60 76.51 380.32 54.68 C 346.05 32.85 298.55 49.44 268.75 71.75 C 238.96 94.07 224.02 125.64 213.22 162.22 C 202.42 198.81 199.82 251.42 196.00 291.00
C 175.86 250.95 188.80 189.82 199.33 148.33 C 209.86 106.84 233.70 72.55 268.70 49.70 C 303.69 26.84 363.87 19.12 399.68 45.32 C 435.49 71.52 496.73 50.00 515.00 98.00
C 459.33 118.66 423.33 128.08 373.75 166.75 C 324.17 205.43 367.70 266.68 390.93 311.07 C 414.16 355.47 413.53 438.13 377.00 478.00
C 377.90 477.37 378.85 476.90 380.00 477.00
C 378.54 478.61 375.76 483.32 374.00 482.00
C 337.08 520.40 280.28 511.01 245.25 550.25 C 210.21 589.49 288.43 546.00 294.00 554.00
C 286.69 558.53 277.25 559.66 270.00 565.00
C 312.21 571.59 372.36 562.30 416.67 553.67 C 460.98 545.04 490.56 519.07 519.90 488.90 C 549.24 458.73 565.75 422.76 581.97 382.97 C 598.19 343.19 599.49 280.22 586.25 238.75 C 573.00 197.29 554.45 162.19 531.00 127.00
C 645.83 224.80 656.13 400.65 559.23 517.23 C 462.33 633.81 287.20 652.68 162.30 569.70 C 37.41 486.71 -10.70 313.96 57.00 183.00
C 50.82 205.64 57.45 233.56 51.00 257.00 C 44.55 280.44 72.33 311.48 50.98 326.98 C 29.62 342.47 58.88 343.67 80.25 329.25 C 101.62 314.83 97.46 289.08 97.00 264.00 C 96.54 238.92 97.31 209.88 95.00 185.00
C 64.21 174.45 47.65 169.16 29.74 137.26 C 11.84 105.35 27.08 81.95 30.75 43.75 C 34.43 5.56 71.04 12.12 106.00 13.00 C 140.96 13.88 172.76 2.96 179.78 40.22 C 186.80 77.48 198.07 102.93 183.69 135.69 C 169.32 168.46 148.97 175.51 119.00 185.00
M 562.00 238.00
C 560.29 246.53 521.56 236.31 510.00 238.00 C 498.44 239.69 475.92 247.87 464.00 252.00
C 454.08 255.44 445.62 263.90 438.00 271.00
C 476.47 329.35 453.79 427.81 527.00 461.00
C 514.49 475.81 495.42 480.64 479.92 489.92 C 464.43 499.21 430.35 497.65 416.00 503.00 C 401.65 508.35 343.18 504.08 384.23 496.23 C 425.27 488.38 471.03 485.73 508.00 466.00
C 490.71 454.34 476.61 441.44 468.03 421.97 C 459.44 402.51 451.80 377.97 449.02 355.98 C 446.25 333.98 436.96 308.23 432.00 288.00 C 427.04 267.76 411.06 249.38 403.75 232.25 C 396.43 215.13 438.99 208.97 456.00 207.00 C 473.01 205.03 511.35 212.21 527.00 219.00
C 487.17 182.43 421.36 187.44 374.00 207.00
C 393.10 198.07 381.65 170.21 395.00 160.00
C 399.02 192.37 429.65 173.54 453.00 175.00 C 476.35 176.46 502.30 180.97 520.68 193.32 C 539.06 205.68 554.54 217.24 562.00 238.00
M 534.00 395.00
C 555.34 401.75 542.67 440.44 519.98 430.02 C 497.28 419.61 511.30 387.82 534.00 395.00
M 275.00 496.00
C 247.24 486.18 236.26 471.60 205.75 490.75 C 175.25 509.90 201.55 464.31 225.00 468.00 C 248.45 471.69 291.57 471.09 275.00 496.00
M 284.00 488.00
C 281.79 490.96 278.98 493.90 276.00 496.00
C 277.00 492.66 280.63 488.94 284.00 488.00
M 326.00 555.00
C 325.91 520.16 356.14 545.57 326.00 555.00 Z"/>
</g>
<g fill="currentColor" fill-opacity="0.0" stroke="#FFFFFF" stroke-opacity="1.00" stroke-width="0.3"><path d="
M 374.00 482.00
C 375.10 480.86 376.07 479.22 377.00 478.00
C 413.53 438.13 414.16 355.47 390.93 311.07 C 367.70 266.68 324.17 205.43 373.75 166.75 C 423.33 128.08 459.33 118.66 515.00 98.00
C 496.73 50.00 435.49 71.52 399.68 45.32 C 363.87 19.12 303.69 26.84 268.70 49.70 C 233.70 72.55 209.86 106.84 199.33 148.33 C 188.80 189.82 175.86 250.95 196.00 291.00
C 199.82 251.42 202.42 198.81 213.22 162.22 C 224.02 125.64 238.96 94.07 268.75 71.75 C 298.55 49.44 346.05 32.85 380.32 54.68 C 414.60 76.51 455.54 75.20 491.00 90.00
C 463.91 102.41 439.44 87.47 413.25 105.25 C 387.05 123.02 388.89 94.63 363.08 82.92 C 337.27 71.21 317.78 84.03 295.25 99.25 C 272.71 114.47 294.29 158.10 280.00 169.00 C 265.71 179.90 238.89 188.71 230.25 211.25 C 221.60 233.79 211.37 258.73 211.00 284.00 C 210.63 309.27 213.54 345.45 223.01 364.99 C 232.48 384.53 242.12 412.38 255.75 424.25 C 269.38 436.12 286.19 472.73 301.00 467.00
C 302.08 466.15 303.27 464.12 304.00 463.00
C 309.25 453.08 313.68 442.78 319.00 433.00
C 323.85 465.36 307.86 469.04 290.75 497.75 C 273.65 526.47 244.54 487.58 220.10 510.10 C 195.66 532.62 239.60 520.58 261.00 515.00
C 246.71 528.83 228.45 555.64 209.25 537.75 C 190.05 519.86 173.65 515.70 156.90 499.10 C 140.15 482.50 124.27 472.36 113.30 451.70 C 102.33 431.03 85.70 418.33 80.98 393.02 C 76.25 367.72 49.33 366.28 35.00 349.00
C 50.70 350.92 66.13 354.78 81.33 358.67 C 96.53 362.56 120.05 356.70 134.00 358.00 C 147.95 359.30 176.73 348.47 159.07 340.93 C 141.42 333.38 134.77 338.55 122.00 323.00
C 110.91 309.50 111.82 271.60 114.00 256.00 C 116.18 240.40 106.41 188.02 119.00 185.00
C 148.97 175.51 169.32 168.46 183.69 135.69 C 198.07 102.93 186.80 77.48 179.78 40.22 C 172.76 2.96 140.96 13.88 106.00 13.00 C 71.04 12.12 34.43 5.56 30.75 43.75 C 27.08 81.95 11.84 105.35 29.74 137.26 C 47.65 169.16 64.21 174.45 95.00 185.00
C 97.31 209.88 96.54 238.92 97.00 264.00 C 97.46 289.08 101.62 314.83 80.25 329.25 C 58.88 343.67 29.62 342.47 50.98 326.98 C 72.33 311.48 44.55 280.44 51.00 257.00 C 57.45 233.56 50.82 205.64 57.00 183.00
C -10.70 313.96 37.41 486.71 162.30 569.70 C 287.20 652.68 462.33 633.81 559.23 517.23 C 656.13 400.65 645.83 224.80 531.00 127.00
C 554.45 162.19 573.00 197.29 586.25 238.75 C 599.49 280.22 598.19 343.19 581.97 382.97 C 565.75 422.76 549.24 458.73 519.90 488.90 C 490.56 519.07 460.98 545.04 416.67 553.67 C 372.36 562.30 312.21 571.59 270.00 565.00
C 277.25 559.66 286.69 558.53 294.00 554.00
C 288.43 546.00 210.21 589.49 245.25 550.25 C 280.28 511.01 337.08 520.40 374.00 482.00
M 47.00 53.00
C 41.16 22.07 79.98 30.13 98.00 30.00 C 116.02 29.87 158.44 24.48 160.93 42.07 C 163.42 59.66 127.72 55.30 111.99 62.99 C 96.26 70.68 64.93 45.31 47.00 53.00
M 168.00 67.00
C 177.57 73.90 174.47 107.52 169.08 119.08 C 163.69 130.65 160.77 148.35 143.77 155.77 C 126.77 163.19 125.35 172.87 97.31 167.69 C 69.26 162.52 39.82 133.02 39.00 103.00 C 38.18 72.98 41.93 65.03 63.02 70.98 C 84.12 76.92 98.58 74.39 116.07 77.07 C 133.56 79.76 154.94 57.57 168.00 67.00
M 446.00 103.00
C 428.16 115.36 406.96 120.04 390.00 135.00
C 386.58 108.85 421.43 109.84 439.00 102.00
C 443.60 100.66 450.13 95.98 455.00 99.00
C 451.74 99.55 449.05 101.76 446.00 103.00
M 349.00 99.00
C 364.41 100.73 366.06 123.00 348.98 123.98 C 331.89 124.96 332.31 97.12 349.00 99.00
M 124.00 342.00
C 114.56 347.67 99.35 345.35 89.00 343.00
C 99.11 323.73 110.57 333.20 124.00 342.00 Z"/>
</g>
<g fill="currentColor" fill-opacity="0.0" stroke="#000000" stroke-opacity="0.04" stroke-width="0.3"><path d="
M 47.00 53.00
C 64.93 45.31 96.26 70.68 111.99 62.99 C 127.72 55.30 163.42 59.66 160.93 42.07 C 158.44 24.48 116.02 29.87 98.00 30.00 C 79.98 30.13 41.16 22.07 47.00 53.00 Z"/>
</g>
<g fill="currentColor" fill-opacity="0.0" stroke="#000000" stroke-opacity="0.02" stroke-width="0.3"><path d="
M 168.00 67.00
C 154.94 57.57 133.56 79.76 116.07 77.07 C 98.58 74.39 84.12 76.92 63.02 70.98 C 41.93 65.03 38.18 72.98 39.00 103.00 C 39.82 133.02 69.26 162.52 97.31 167.69 C 125.35 172.87 126.77 163.19 143.77 155.77 C 160.77 148.35 163.69 130.65 169.08 119.08 C 174.47 107.52 177.57 73.90 168.00 67.00
M 69.00 97.00
C 79.62 99.99 86.31 124.55 71.93 123.07 C 57.54 121.60 53.34 92.59 69.00 97.00
M 101.00 131.00
C 108.91 132.57 107.39 146.36 98.00 144.00 C 88.61 141.64 93.70 129.55 101.00 131.00 Z"/>
</g>
<g fill="currentColor" fill-opacity="0.0" stroke="#FFFFFF" stroke-opacity="1.00" stroke-width="0.3"><path d="
M 69.00 97.00
C 53.34 92.59 57.54 121.60 71.93 123.07 C 86.31 124.55 79.62 99.99 69.00 97.00 Z"/>
</g>
<g fill="currentColor" fill-opacity="0.0" stroke="#000000" stroke-opacity="0.94" stroke-width="0.3"><path d="
M 439.00 102.00
C 441.40 101.94 443.89 103.25 446.00 103.00
C 449.05 101.76 451.74 99.55 455.00 99.00
C 450.13 95.98 443.60 100.66 439.00 102.00 Z"/>
</g>
<g fill="currentColor" fill-opacity="0.0" stroke="#000000" stroke-opacity="0.07" stroke-width="0.3"><path d="
M 349.00 99.00
C 332.31 97.12 331.89 124.96 348.98 123.98 C 366.06 123.00 364.41 100.73 349.00 99.00 Z"/>
</g>
<g fill="currentColor" fill-opacity="0.0" stroke="#000000" stroke-opacity="0.09" stroke-width="0.3"><path d="
M 446.00 103.00
C 443.89 103.25 441.40 101.94 439.00 102.00
C 421.43 109.84 386.58 108.85 390.00 135.00
C 406.96 120.04 428.16 115.36 446.00 103.00 Z"/>
</g>
<g fill="currentColor" fill-opacity="0.0" stroke="#FFFFFF" stroke-opacity="1.00" stroke-width="0.3"><path d="
M 101.00 131.00
C 93.70 129.55 88.61 141.64 98.00 144.00 C 107.39 146.36 108.91 132.57 101.00 131.00 Z"/>
</g>
<g fill="currentColor" fill-opacity="0.0" stroke="#FFFFFF" stroke-opacity="1.00" stroke-width="0.3"><path d="
M 464.00 252.00
C 472.70 247.25 482.17 242.73 491.67 239.67 C 501.18 236.61 518.83 237.73 527.01 236.99 C 535.19 236.25 558.84 244.65 562.00 238.00
C 554.54 217.24 539.06 205.68 520.68 193.32 C 502.30 180.97 476.35 176.46 453.00 175.00 C 429.65 173.54 399.02 192.37 395.00 160.00
C 381.65 170.21 393.10 198.07 374.00 207.00
C 421.36 187.44 487.17 182.43 527.00 219.00
C 511.35 212.21 473.01 205.03 456.00 207.00 C 438.99 208.97 396.43 215.13 403.75 232.25 C 411.06 249.38 427.04 267.76 432.00 288.00 C 436.96 308.23 446.25 333.98 449.02 355.98 C 451.80 377.97 459.44 402.51 468.03 421.97 C 476.61 441.44 490.71 454.34 508.00 466.00
C 471.03 485.73 425.27 488.38 384.23 496.23 C 343.18 504.08 401.65 508.35 416.00 503.00 C 430.35 497.65 464.43 499.21 479.92 489.92 C 495.42 480.64 514.49 475.81 527.00 461.00
C 453.79 427.81 476.47 329.35 438.00 271.00
C 445.62 263.90 454.08 255.44 464.00 252.00 Z"/>
</g>
<g fill="currentColor" fill-opacity="0.0" stroke="#000000" stroke-opacity="0.54" stroke-width="0.3"><path d="
M 122.00 323.00
C 115.03 311.38 114.66 293.59 116.00 280.00 C 117.34 266.41 113.40 242.96 116.00 231.00 C 118.60 219.04 109.01 190.39 119.00 185.00
C 106.41 188.02 116.18 240.40 114.00 256.00 C 111.82 271.60 110.91 309.50 122.00 323.00 Z"/>
</g>
<g fill="currentColor" fill-opacity="0.0" stroke="#000000" stroke-opacity="0.51" stroke-width="0.3"><path d="
M 464.00 252.00
C 475.92 247.87 498.44 239.69 510.00 238.00 C 521.56 236.31 560.29 246.53 562.00 238.00
C 558.84 244.65 535.19 236.25 527.01 236.99 C 518.83 237.73 501.18 236.61 491.67 239.67 C 482.17 242.73 472.70 247.25 464.00 252.00 Z"/>
</g>
<g fill="currentColor" fill-opacity="0.0" stroke="#000000" stroke-opacity="0.10" stroke-width="0.3"><path d="
M 124.00 342.00
C 110.57 333.20 99.11 323.73 89.00 343.00
C 99.35 345.35 114.56 347.67 124.00 342.00 Z"/>
</g>
<g fill="currentColor" fill-opacity="0.0" stroke="#FFFFFF" stroke-opacity="0.96" stroke-width="0.3"><path d="
M 534.00 395.00
C 511.30 387.82 497.28 419.61 519.98 430.02 C 542.67 440.44 555.34 401.75 534.00 395.00
M 536.00 419.00
C 533.87 424.56 529.01 425.44 523.00 424.00
C 489.60 415.98 550.30 381.67 536.00 419.00 Z"/>
</g>
<g fill="currentColor" fill-opacity="0.0" stroke="#000000" stroke-opacity="0.99" stroke-width="0.3"><path d="
M 523.00 424.00
C 521.87 423.12 522.08 421.24 522.00 420.00
C 526.95 421.67 532.18 417.09 536.00 419.00
C 550.30 381.67 489.60 415.98 523.00 424.00
M 519.00 416.00
C 519.03 417.00 518.98 418.00 519.00 419.00
C 514.67 417.36 515.95 412.27 517.00 409.00
C 519.37 410.03 516.54 414.04 519.00 415.00
C 516.62 379.60 546.61 440.13 519.00 416.00 Z"/>
</g>
<g fill="currentColor" fill-opacity="0.0" stroke="#FFFFFF" stroke-opacity="1.00" stroke-width="0.3"><path d="
M 519.00 415.00
C 519.03 415.50 519.00 416.00 519.00 416.00
C 546.61 440.13 516.62 379.60 519.00 415.00 Z"/>
</g>
<g fill="currentColor" fill-opacity="0.0" stroke="#000000" stroke-opacity="0.11" stroke-width="0.3"><path d="
M 519.00 416.00
C 519.00 416.00 519.03 415.50 519.00 415.00
C 516.54 414.04 519.37 410.03 517.00 409.00
C 515.95 412.27 514.67 417.36 519.00 419.00
C 518.98 418.00 519.03 417.00 519.00 416.00 Z"/>
</g>
<g fill="currentColor" fill-opacity="0.0" stroke="#000000" stroke-opacity="0.16" stroke-width="0.3"><path d="
M 523.00 424.00
C 529.01 425.44 533.87 424.56 536.00 419.00
C 532.18 417.09 526.95 421.67 522.00 420.00
C 522.08 421.24 521.87 423.12 523.00 424.00 Z"/>
</g>
<g fill="currentColor" fill-opacity="0.0" stroke="#000000" stroke-opacity="0.56" stroke-width="0.3"><path d="
M 304.00 463.00
C 303.27 464.12 302.08 466.15 301.00 467.00
C 301.97 466.62 307.65 460.67 304.00 463.00 Z"/>
</g>
<g fill="currentColor" fill-opacity="0.0" stroke="#FFFFFF" stroke-opacity="0.98" stroke-width="0.3"><path d="
M 275.00 496.00
C 291.57 471.09 248.45 471.69 225.00 468.00 C 201.55 464.31 175.25 509.90 205.75 490.75 C 236.26 471.60 247.24 486.18 275.00 496.00 Z"/>
</g>
<g fill="currentColor" fill-opacity="0.0" stroke="#000000" stroke-opacity="0.68" stroke-width="0.3"><path d="
M 377.00 478.00
C 376.07 479.22 375.10 480.86 374.00 482.00
C 375.76 483.32 378.54 478.61 380.00 477.00
C 378.85 476.90 377.90 477.37 377.00 478.00 Z"/>
</g>
<g fill="currentColor" fill-opacity="0.0" stroke="#000000" stroke-opacity="0.58" stroke-width="0.3"><path d="
M 284.00 488.00
C 280.63 488.94 277.00 492.66 276.00 496.00
C 278.98 493.90 281.79 490.96 284.00 488.00 Z"/>
</g>
<g fill="currentColor" fill-opacity="0.0" stroke="#FFFFFF" stroke-opacity="0.99" stroke-width="0.3"><path d="
M 326.00 555.00
C 356.14 545.57 325.91 520.16 326.00 555.00 Z"/>
</g>
<g fill="#000000" fill-opacity="0.01" stroke="None"><path d="
M 0.00 636.00
L 638.00 636.00
L 638.00 0.00
L 0.00 0.00
L 0.00 636.00
M 119.00 185.00
C 109.01 190.39 118.60 219.04 116.00 231.00 C 113.40 242.96 117.34 266.41 116.00 280.00 C 114.66 293.59 115.03 311.38 122.00 323.00
C 134.77 338.55 141.42 333.38 159.07 340.93 C 176.73 348.47 147.95 359.30 134.00 358.00 C 120.05 356.70 96.53 362.56 81.33 358.67 C 66.13 354.78 50.70 350.92 35.00 349.00
C 49.33 366.28 76.25 367.72 80.98 393.02 C 85.70 418.33 102.33 431.03 113.30 451.70 C 124.27 472.36 140.15 482.50 156.90 499.10 C 173.65 515.70 190.05 519.86 209.25 537.75 C 228.45 555.64 246.71 528.83 261.00 515.00
C 239.60 520.58 195.66 532.62 220.10 510.10 C 244.54 487.58 273.65 526.47 290.75 497.75 C 307.86 469.04 323.85 465.36 319.00 433.00
C 313.68 442.78 309.25 453.08 304.00 463.00
C 307.65 460.67 301.97 466.62 301.00 467.00
C 286.19 472.73 269.38 436.12 255.75 424.25 C 242.12 412.38 232.48 384.53 223.01 364.99 C 213.54 345.45 210.63 309.27 211.00 284.00 C 211.37 258.73 221.60 233.79 230.25 211.25 C 238.89 188.71 265.71 179.90 280.00 169.00 C 294.29 158.10 272.71 114.47 295.25 99.25 C 317.78 84.03 337.27 71.21 363.08 82.92 C 388.89 94.63 387.05 123.02 413.25 105.25 C 439.44 87.47 463.91 102.41 491.00 90.00
C 455.54 75.20 414.60 76.51 380.32 54.68 C 346.05 32.85 298.55 49.44 268.75 71.75 C 238.96 94.07 224.02 125.64 213.22 162.22 C 202.42 198.81 199.82 251.42 196.00 291.00
C 175.86 250.95 188.80 189.82 199.33 148.33 C 209.86 106.84 233.70 72.55 268.70 49.70 C 303.69 26.84 363.87 19.12 399.68 45.32 C 435.49 71.52 496.73 50.00 515.00 98.00
C 459.33 118.66 423.33 128.08 373.75 166.75 C 324.17 205.43 367.70 266.68 390.93 311.07 C 414.16 355.47 413.53 438.13 377.00 478.00
C 377.90 477.37 378.85 476.90 380.00 477.00
C 378.54 478.61 375.76 483.32 374.00 482.00
C 337.08 520.40 280.28 511.01 245.25 550.25 C 210.21 589.49 288.43 546.00 294.00 554.00
C 286.69 558.53 277.25 559.66 270.00 565.00
C 312.21 571.59 372.36 562.30 416.67 553.67 C 460.98 545.04 490.56 519.07 519.90 488.90 C 549.24 458.73 565.75 422.76 581.97 382.97 C 598.19 343.19 599.49 280.22 586.25 238.75 C 573.00 197.29 554.45 162.19 531.00 127.00
C 645.83 224.80 656.13 400.65 559.23 517.23 C 462.33 633.81 287.20 652.68 162.30 569.70 C 37.41 486.71 -10.70 313.96 57.00 183.00
C 50.82 205.64 57.45 233.56 51.00 257.00 C 44.55 280.44 72.33 311.48 50.98 326.98 C 29.62 342.47 58.88 343.67 80.25 329.25 C 101.62 314.83 97.46 289.08 97.00 264.00 C 96.54 238.92 97.31 209.88 95.00 185.00
C 64.21 174.45 47.65 169.16 29.74 137.26 C 11.84 105.35 27.08 81.95 30.75 43.75 C 34.43 5.56 71.04 12.12 106.00 13.00 C 140.96 13.88 172.76 2.96 179.78 40.22 C 186.80 77.48 198.07 102.93 183.69 135.69 C 169.32 168.46 148.97 175.51 119.00 185.00
M 562.00 238.00
C 560.29 246.53 521.56 236.31 510.00 238.00 C 498.44 239.69 475.92 247.87 464.00 252.00
C 454.08 255.44 445.62 263.90 438.00 271.00
C 476.47 329.35 453.79 427.81 527.00 461.00
C 514.49 475.81 495.42 480.64 479.92 489.92 C 464.43 499.21 430.35 497.65 416.00 503.00 C 401.65 508.35 343.18 504.08 384.23 496.23 C 425.27 488.38 471.03 485.73 508.00 466.00
C 490.71 454.34 476.61 441.44 468.03 421.97 C 459.44 402.51 451.80 377.97 449.02 355.98 C 446.25 333.98 436.96 308.23 432.00 288.00 C 427.04 267.76 411.06 249.38 403.75 232.25 C 396.43 215.13 438.99 208.97 456.00 207.00 C 473.01 205.03 511.35 212.21 527.00 219.00
C 487.17 182.43 421.36 187.44 374.00 207.00
C 393.10 198.07 381.65 170.21 395.00 160.00
C 399.02 192.37 429.65 173.54 453.00 175.00 C 476.35 176.46 502.30 180.97 520.68 193.32 C 539.06 205.68 554.54 217.24 562.00 238.00
M 534.00 395.00
C 555.34 401.75 542.67 440.44 519.98 430.02 C 497.28 419.61 511.30 387.82 534.00 395.00
M 275.00 496.00
C 247.24 486.18 236.26 471.60 205.75 490.75 C 175.25 509.90 201.55 464.31 225.00 468.00 C 248.45 471.69 291.57 471.09 275.00 496.00
M 284.00 488.00
C 281.79 490.96 278.98 493.90 276.00 496.00
C 277.00 492.66 280.63 488.94 284.00 488.00
M 326.00 555.00
C 325.91 520.16 356.14 545.57 326.00 555.00 Z"/>
</g>
<g fill="#FFFFFF" fill-opacity="1.00" stroke="None"><path d="
M 374.00 482.00
C 375.10 480.86 376.07 479.22 377.00 478.00
C 413.53 438.13 414.16 355.47 390.93 311.07 C 367.70 266.68 324.17 205.43 373.75 166.75 C 423.33 128.08 459.33 118.66 515.00 98.00
C 496.73 50.00 435.49 71.52 399.68 45.32 C 363.87 19.12 303.69 26.84 268.70 49.70 C 233.70 72.55 209.86 106.84 199.33 148.33 C 188.80 189.82 175.86 250.95 196.00 291.00
C 199.82 251.42 202.42 198.81 213.22 162.22 C 224.02 125.64 238.96 94.07 268.75 71.75 C 298.55 49.44 346.05 32.85 380.32 54.68 C 414.60 76.51 455.54 75.20 491.00 90.00
C 463.91 102.41 439.44 87.47 413.25 105.25 C 387.05 123.02 388.89 94.63 363.08 82.92 C 337.27 71.21 317.78 84.03 295.25 99.25 C 272.71 114.47 294.29 158.10 280.00 169.00 C 265.71 179.90 238.89 188.71 230.25 211.25 C 221.60 233.79 211.37 258.73 211.00 284.00 C 210.63 309.27 213.54 345.45 223.01 364.99 C 232.48 384.53 242.12 412.38 255.75 424.25 C 269.38 436.12 286.19 472.73 301.00 467.00
C 302.08 466.15 303.27 464.12 304.00 463.00
C 309.25 453.08 313.68 442.78 319.00 433.00
C 323.85 465.36 307.86 469.04 290.75 497.75 C 273.65 526.47 244.54 487.58 220.10 510.10 C 195.66 532.62 239.60 520.58 261.00 515.00
C 246.71 528.83 228.45 555.64 209.25 537.75 C 190.05 519.86 173.65 515.70 156.90 499.10 C 140.15 482.50 124.27 472.36 113.30 451.70 C 102.33 431.03 85.70 418.33 80.98 393.02 C 76.25 367.72 49.33 366.28 35.00 349.00
C 50.70 350.92 66.13 354.78 81.33 358.67 C 96.53 362.56 120.05 356.70 134.00 358.00 C 147.95 359.30 176.73 348.47 159.07 340.93 C 141.42 333.38 134.77 338.55 122.00 323.00
C 110.91 309.50 111.82 271.60 114.00 256.00 C 116.18 240.40 106.41 188.02 119.00 185.00
C 148.97 175.51 169.32 168.46 183.69 135.69 C 198.07 102.93 186.80 77.48 179.78 40.22 C 172.76 2.96 140.96 13.88 106.00 13.00 C 71.04 12.12 34.43 5.56 30.75 43.75 C 27.08 81.95 11.84 105.35 29.74 137.26 C 47.65 169.16 64.21 174.45 95.00 185.00
C 97.31 209.88 96.54 238.92 97.00 264.00 C 97.46 289.08 101.62 314.83 80.25 329.25 C 58.88 343.67 29.62 342.47 50.98 326.98 C 72.33 311.48 44.55 280.44 51.00 257.00 C 57.45 233.56 50.82 205.64 57.00 183.00
C -10.70 313.96 37.41 486.71 162.30 569.70 C 287.20 652.68 462.33 633.81 559.23 517.23 C 656.13 400.65 645.83 224.80 531.00 127.00
C 554.45 162.19 573.00 197.29 586.25 238.75 C 599.49 280.22 598.19 343.19 581.97 382.97 C 565.75 422.76 549.24 458.73 519.90 488.90 C 490.56 519.07 460.98 545.04 416.67 553.67 C 372.36 562.30 312.21 571.59 270.00 565.00
C 277.25 559.66 286.69 558.53 294.00 554.00
C 288.43 546.00 210.21 589.49 245.25 550.25 C 280.28 511.01 337.08 520.40 374.00 482.00
M 47.00 53.00
C 41.16 22.07 79.98 30.13 98.00 30.00 C 116.02 29.87 158.44 24.48 160.93 42.07 C 163.42 59.66 127.72 55.30 111.99 62.99 C 96.26 70.68 64.93 45.31 47.00 53.00
M 168.00 67.00
C 177.57 73.90 174.47 107.52 169.08 119.08 C 163.69 130.65 160.77 148.35 143.77 155.77 C 126.77 163.19 125.35 172.87 97.31 167.69 C 69.26 162.52 39.82 133.02 39.00 103.00 C 38.18 72.98 41.93 65.03 63.02 70.98 C 84.12 76.92 98.58 74.39 116.07 77.07 C 133.56 79.76 154.94 57.57 168.00 67.00
M 446.00 103.00
C 428.16 115.36 406.96 120.04 390.00 135.00
C 386.58 108.85 421.43 109.84 439.00 102.00
C 443.60 100.66 450.13 95.98 455.00 99.00
C 451.74 99.55 449.05 101.76 446.00 103.00
M 349.00 99.00
C 364.41 100.73 366.06 123.00 348.98 123.98 C 331.89 124.96 332.31 97.12 349.00 99.00
M 124.00 342.00
C 114.56 347.67 99.35 345.35 89.00 343.00
C 99.11 323.73 110.57 333.20 124.00 342.00 Z"/>
</g>
<g fill="#000000" fill-opacity="0.04" stroke="None"><path d="
M 47.00 53.00
C 64.93 45.31 96.26 70.68 111.99 62.99 C 127.72 55.30 163.42 59.66 160.93 42.07 C 158.44 24.48 116.02 29.87 98.00 30.00 C 79.98 30.13 41.16 22.07 47.00 53.00 Z"/>
</g>
<g fill="#000000" fill-opacity="0.02" stroke="None"><path d="
M 168.00 67.00
C 154.94 57.57 133.56 79.76 116.07 77.07 C 98.58 74.39 84.12 76.92 63.02 70.98 C 41.93 65.03 38.18 72.98 39.00 103.00 C 39.82 133.02 69.26 162.52 97.31 167.69 C 125.35 172.87 126.77 163.19 143.77 155.77 C 160.77 148.35 163.69 130.65 169.08 119.08 C 174.47 107.52 177.57 73.90 168.00 67.00
M 101.00 131.00
C 108.91 132.57 107.39 146.36 98.00 144.00 C 88.61 141.64 93.70 129.55 101.00 131.00 Z"/>
</g>
<g fill="#FFFFFF" fill-opacity="1.00" stroke="None"><path d="
M 69.00 97.00
C 53.34 92.59 57.54 121.60 71.93 123.07 C 86.31 124.55 79.62 99.99 69.00 97.00 Z"/>
</g>
<g fill="#000000" fill-opacity="0.94" stroke="None"><path d="
M 439.00 102.00
C 441.40 101.94 443.89 103.25 446.00 103.00
C 449.05 101.76 451.74 99.55 455.00 99.00
C 450.13 95.98 443.60 100.66 439.00 102.00 Z"/>
</g>
<g fill="#000000" fill-opacity="0.07" stroke="None"><path d="
M 349.00 99.00
C 332.31 97.12 331.89 124.96 348.98 123.98 C 366.06 123.00 364.41 100.73 349.00 99.00 Z"/>
</g>
<g fill="#000000" fill-opacity="0.09" stroke="None"><path d="
M 446.00 103.00
C 443.89 103.25 441.40 101.94 439.00 102.00
C 421.43 109.84 386.58 108.85 390.00 135.00
C 406.96 120.04 428.16 115.36 446.00 103.00 Z"/>
</g>
<g fill="#FFFFFF" fill-opacity="1.00" stroke="None"><path d="
M 101.00 131.00
C 93.70 129.55 88.61 141.64 98.00 144.00 C 107.39 146.36 108.91 132.57 101.00 131.00 Z"/>
</g>
<g fill="#FFFFFF" fill-opacity="1.00" stroke="None"><path d="
M 464.00 252.00
C 472.70 247.25 482.17 242.73 491.67 239.67 C 501.18 236.61 518.83 237.73 527.01 236.99 C 535.19 236.25 558.84 244.65 562.00 238.00
C 554.54 217.24 539.06 205.68 520.68 193.32 C 502.30 180.97 476.35 176.46 453.00 175.00 C 429.65 173.54 399.02 192.37 395.00 160.00
C 381.65 170.21 393.10 198.07 374.00 207.00
C 421.36 187.44 487.17 182.43 527.00 219.00
C 511.35 212.21 473.01 205.03 456.00 207.00 C 438.99 208.97 396.43 215.13 403.75 232.25 C 411.06 249.38 427.04 267.76 432.00 288.00 C 436.96 308.23 446.25 333.98 449.02 355.98 C 451.80 377.97 459.44 402.51 468.03 421.97 C 476.61 441.44 490.71 454.34 508.00 466.00
C 471.03 485.73 425.27 488.38 384.23 496.23 C 343.18 504.08 401.65 508.35 416.00 503.00 C 430.35 497.65 464.43 499.21 479.92 489.92 C 495.42 480.64 514.49 475.81 527.00 461.00
C 453.79 427.81 476.47 329.35 438.00 271.00
C 445.62 263.90 454.08 255.44 464.00 252.00 Z"/>
</g>
<g fill="#000000" fill-opacity="0.54" stroke="None"><path d="
M 122.00 323.00
C 115.03 311.38 114.66 293.59 116.00 280.00 C 117.34 266.41 113.40 242.96 116.00 231.00 C 118.60 219.04 109.01 190.39 119.00 185.00
C 106.41 188.02 116.18 240.40 114.00 256.00 C 111.82 271.60 110.91 309.50 122.00 323.00 Z"/>
</g>
<g fill="#000000" fill-opacity="0.51" stroke="None"><path d="
M 464.00 252.00
C 475.92 247.87 498.44 239.69 510.00 238.00 C 521.56 236.31 560.29 246.53 562.00 238.00
C 558.84 244.65 535.19 236.25 527.01 236.99 C 518.83 237.73 501.18 236.61 491.67 239.67 C 482.17 242.73 472.70 247.25 464.00 252.00 Z"/>
</g>
<g fill="#000000" fill-opacity="0.10" stroke="None"><path d="
M 124.00 342.00
C 110.57 333.20 99.11 323.73 89.00 343.00
C 99.35 345.35 114.56 347.67 124.00 342.00 Z"/>
</g>
<g fill="#FFFFFF" fill-opacity="0.96" stroke="None"><path d="
M 534.00 395.00
C 511.30 387.82 497.28 419.61 519.98 430.02 C 542.67 440.44 555.34 401.75 534.00 395.00
M 536.00 419.00
C 533.87 424.56 529.01 425.44 523.00 424.00
C 489.60 415.98 550.30 381.67 536.00 419.00 Z"/>
</g>
<g fill="#000000" fill-opacity="0.99" stroke="None"><path d="
M 523.00 424.00
C 521.87 423.12 522.08 421.24 522.00 420.00
C 526.95 421.67 532.18 417.09 536.00 419.00
C 550.30 381.67 489.60 415.98 523.00 424.00
M 519.00 416.00
C 519.03 417.00 518.98 418.00 519.00 419.00
C 514.67 417.36 515.95 412.27 517.00 409.00
C 519.37 410.03 516.54 414.04 519.00 415.00
C 516.62 379.60 546.61 440.13 519.00 416.00 Z"/>
</g>
<g fill="#FFFFFF" fill-opacity="1.00" stroke="None"><path d="
M 519.00 415.00
C 519.03 415.50 519.00 416.00 519.00 416.00
C 546.61 440.13 516.62 379.60 519.00 415.00 Z"/>
</g>
<g fill="#000000" fill-opacity="0.11" stroke="None"><path d="
M 519.00 416.00
C 519.00 416.00 519.03 415.50 519.00 415.00
C 516.54 414.04 519.37 410.03 517.00 409.00
C 515.95 412.27 514.67 417.36 519.00 419.00
C 518.98 418.00 519.03 417.00 519.00 416.00 Z"/>
</g>
<g fill="#000000" fill-opacity="0.16" stroke="None"><path d="
M 523.00 424.00
C 529.01 425.44 533.87 424.56 536.00 419.00
C 532.18 417.09 526.95 421.67 522.00 420.00
C 522.08 421.24 521.87 423.12 523.00 424.00 Z"/>
</g>
<g fill="#000000" fill-opacity="0.56" stroke="None"><path d="
M 304.00 463.00
C 303.27 464.12 302.08 466.15 301.00 467.00
C 301.97 466.62 307.65 460.67 304.00 463.00 Z"/>
</g>
<g fill="#FFFFFF" fill-opacity="0.98" stroke="None"><path d="
M 275.00 496.00
C 291.57 471.09 248.45 471.69 225.00 468.00 C 201.55 464.31 175.25 509.90 205.75 490.75 C 236.26 471.60 247.24 486.18 275.00 496.00 Z"/>
</g>
<g fill="#000000" fill-opacity="0.68" stroke="None"><path d="
M 377.00 478.00
C 376.07 479.22 375.10 480.86 374.00 482.00
C 375.76 483.32 378.54 478.61 380.00 477.00
C 378.85 476.90 377.90 477.37 377.00 478.00 Z"/>
</g>
<g fill="#000000" fill-opacity="0.58" stroke="None"><path d="
M 284.00 488.00
C 280.63 488.94 277.00 492.66 276.00 496.00
C 278.98 493.90 281.79 490.96 284.00 488.00 Z"/>
</g>
<g fill="#FFFFFF" fill-opacity="0.99" stroke="None"><path d="
M 326.00 555.00
C 356.14 545.57 325.91 520.16 326.00 555.00 Z"/>
</g>
</svg>